HIERARCHY
ROOT Pelvis
{
	OFFSET 0.000000 0.000000 0.000000
	CHANNELS 6 Xposition Yposition Zposition Xrotation Yrotation Zrotation
	JOINT LeftUpLeg_virtual
	{
		OFFSET 0.000000 0.000000 0.000000
		CHANNELS 3 Xrotation Yrotation Zrotation
		JOINT LeftUpLeg
		{
			OFFSET 18.735201 -5.666702 -4.541200
			CHANNELS 3 Xrotation Yrotation Zrotation
			JOINT LeftLeg
			{
				OFFSET -0.021200 -31.938179 0.493100
				CHANNELS 3 Xrotation Yrotation Zrotation
				JOINT LeftFoot
				{
					OFFSET 0.021200 -31.938179 -4.336299
					CHANNELS 3 Xrotation Yrotation Zrotation
					JOINT LeftToeBase
					{
						OFFSET 0.943001 -26.722000 15.023500
						CHANNELS 3 Xrotation Yrotation Zrotation
						End Site
						{
							OFFSET 0 0 0
						}
					}
				}
			}
		}
	}
	JOINT RightUpLeg_virtual
	{
		OFFSET 0.000000 0.000000 0.000000
		CHANNELS 3 Xrotation Yrotation Zrotation
		JOINT RightUpLeg
		{
			OFFSET -18.735201 -5.666702 -4.541200
			CHANNELS 3 Xrotation Yrotation Zrotation
			JOINT RightLeg
			{
				OFFSET 0.018946 -31.938133 0.493100
				CHANNELS 3 Xrotation Yrotation Zrotation
				JOINT RightFoot
				{
					OFFSET -0.018946 -31.938126 -4.336299
					CHANNELS 3 Xrotation Yrotation Zrotation
					JOINT RightToeBase
					{
						OFFSET -0.943001 -26.722004 15.023500
						CHANNELS 3 Xrotation Yrotation Zrotation
						End Site
						{
							OFFSET 0 0 0
						}
					}
				}
			}
		}
	}
	JOINT Hips_virtual
	{
		OFFSET 0.000000 0.000000 0.000000
		CHANNELS 3 Xrotation Yrotation Zrotation
		JOINT Hips
		{
			OFFSET -0.000000 -0.000000 -0.000000
			CHANNELS 3 Xrotation Yrotation Zrotation
			JOINT Spine
			{
				OFFSET 0.000000 10.199997 -0.299500
				CHANNELS 3 Xrotation Yrotation Zrotation
				JOINT Spine1
				{
					OFFSET 0.000000 11.900002 -1.516600
					CHANNELS 3 Xrotation Yrotation Zrotation
					JOINT Spine2
					{
						OFFSET 0.000000 13.600006 -2.842500
						CHANNELS 3 Xrotation Yrotation Zrotation
						JOINT Neck_virtual
						{
							OFFSET 0.000000 0.000000 0.000000
							CHANNELS 3 Xrotation Yrotation Zrotation
							JOINT Neck
							{
								OFFSET 0.000000 9.624100 -2.890100
								CHANNELS 3 Xrotation Yrotation Zrotation
								JOINT Head
								{
									OFFSET 0.000000 14.068802 -1.351900
									CHANNELS 3 Xrotation Yrotation Zrotation
									End Site
									{
										OFFSET 0 0 0
									}
								}
							}
						}
						JOINT LeftShoulder_virtual
						{
							OFFSET 0.000000 0.000000 0.000000
							CHANNELS 3 Xrotation Yrotation Zrotation
							JOINT LeftShoulder
							{
								OFFSET 15.263000 10.923401 -0.547700
								CHANNELS 3 Xrotation Yrotation Zrotation
								JOINT LeftArm
								{
									OFFSET 25.438599 -2.830597 -13.032500
									CHANNELS 3 Xrotation Yrotation Zrotation
									JOINT LeftForeArm
									{
										OFFSET 29.960503 0.000000 0.000000
										CHANNELS 3 Xrotation Yrotation Zrotation
										JOINT LeftHand
										{
											OFFSET 27.849251 0.000000 0.000000
											CHANNELS 3 Xrotation Yrotation Zrotation
											End Site
											{
												OFFSET 0 0 0
											}
										}
									}
								}
							}
						}
						JOINT RightShoulder_virtual
						{
							OFFSET 0.000000 0.000000 0.000000
							CHANNELS 3 Xrotation Yrotation Zrotation
							JOINT RightShoulder
							{
								OFFSET -15.263000 10.923401 -0.547700
								CHANNELS 3 Xrotation Yrotation Zrotation
								JOINT RightArm
								{
									OFFSET -25.438599 -2.830597 -13.032500
									CHANNELS 3 Xrotation Yrotation Zrotation
									JOINT RightForeArm
									{
										OFFSET -29.960503 0.000000 0.000000
										CHANNELS 3 Xrotation Yrotation Zrotation
										JOINT RightHand
										{
											OFFSET -27.849251 0.000000 0.000000
											CHANNELS 3 Xrotation Yrotation Zrotation
											End Site
											{
												OFFSET 0 0 0
											}
										}
									}
								}
							}
						}
					}
				}
			}
		}
	}
}
MOTION
Frames: 11
Frame Time: 0.03333333
114.439796 99.903625 192.873322 0.000000 0.000000 0.000000 -111.603249 -63.964578 -178.076760 -30.286240 15.185302 23.737404 53.772536 -9.973166 1.447823 1.172510 -22.564488 -20.392180 0.000000 0.000000 0.000000 -108.777176 -65.175796 -176.430029 -57.685510 33.099780 -49.166413 63.444849 24.880948 5.658834 -11.869000 11.668787 31.638679 0.000000 0.000000 0.000000 -110.354929 -65.439476 -178.429184 -0.476935 -0.106994 0.073866 20.955828 -2.995906 -3.456698 -7.869071 -1.414716 10.335459 0.000000 0.000000 0.000000 -2.004333 0.781837 10.646126 -2.454627 -2.953427 -0.942717 0.000000 0.000000 0.000000 -4.170182 0.133113 10.286487 3.274181 -19.767659 3.280009 63.335190 40.932511 -85.815446 108.001390 -45.452792 151.460374 0.000000 0.000000 0.000000 -7.813777 1.935773 7.251280 9.602728 54.668534 -0.877073 51.867381 -21.619582 107.727390 52.035526 32.782541 -137.290900 0.000000 0.000000 0.000000 
121.734985 93.271637 201.746460 0.000000 0.000000 0.000000 -109.495227 -59.838946 -177.287081 -35.728638 12.727469 24.899641 59.273850 -12.011226 1.419235 15.985723 -25.470342 -14.200335 0.000000 0.000000 0.000000 -107.528932 -59.917930 -177.551778 -58.318361 33.072172 -44.619242 55.953733 23.300480 5.078388 -1.414620 13.275846 27.920830 0.000000 0.000000 0.000000 -108.519152 -61.066010 -178.283360 -0.497621 -0.214804 0.022666 22.703156 -2.994182 -4.583962 -7.478050 -1.410352 10.390619 0.000000 0.000000 0.000000 -1.003142 0.953527 10.101806 -2.554184 -2.844588 -0.590924 0.000000 0.000000 0.000000 -2.936945 0.347738 10.221191 5.121071 -21.699784 7.680232 67.809954 43.458776 -97.223973 107.318630 -43.185223 151.917109 0.000000 0.000000 0.000000 -7.381462 2.080846 6.777715 13.161336 54.101570 -4.489416 44.519217 -19.449698 112.388297 48.922258 28.880403 -136.631924 0.000000 0.000000 0.000000 
128.613434 84.812057 211.348724 0.000000 0.000000 0.000000 -109.528019 -53.049123 -178.471067 -40.105850 12.072362 25.488504 61.642498 -12.931716 0.578497 27.168671 -24.270336 -6.465159 0.000000 0.000000 0.000000 -107.743454 -52.241969 -179.508382 -60.580315 34.312774 -38.495103 48.912310 21.724339 4.081666 4.494641 11.078920 22.412238 0.000000 0.000000 0.000000 -108.303707 -54.340445 -178.954904 -0.558169 -0.249443 -0.008257 24.931259 -2.830816 -5.711340 -7.139530 -1.055907 10.912273 0.000000 0.000000 0.000000 -0.932916 1.409277 10.079144 -2.519133 -2.680653 -0.374182 0.000000 0.000000 0.000000 -1.809603 0.869972 10.869887 6.444566 -24.075739 10.332793 74.030242 45.974963 -108.556807 112.121066 -38.751532 156.456862 0.000000 0.000000 0.000000 -6.565243 2.598126 7.107591 16.201424 52.880796 -8.013709 37.338469 -19.218052 117.861813 47.792183 25.214080 -137.671301 0.000000 0.000000 0.000000 
134.764877 74.609322 221.654358 0.000000 0.000000 0.000000 -111.389737 -43.370711 179.083421 -41.174826 13.935788 25.086586 59.399266 -12.788680 -1.133964 29.974815 -20.352975 -0.326617 0.000000 0.000000 0.000000 -109.017708 -42.427588 178.346853 -65.156453 36.060564 -30.846275 41.023533 21.666060 5.240460 3.875816 7.912892 20.152763 0.000000 0.000000 0.000000 -109.148288 -44.936901 -179.820917 -0.636543 -0.135650 -0.031326 26.998391 -2.808793 -6.707156 -6.601410 -0.561429 11.877900 0.000000 0.000000 0.000000 -1.486969 1.993705 10.882585 -2.187267 -2.469316 -0.307733 0.000000 0.000000 0.000000 -0.871828 1.510557 12.122254 7.100678 -27.258235 10.414548 78.857368 46.687925 -116.612954 118.135362 -33.415386 161.315859 0.000000 0.000000 0.000000 -5.384430 3.343257 8.294142 18.415162 51.459202 -10.781437 33.572958 -20.373204 122.423218 49.682980 22.109280 -140.592928 0.000000 0.000000 0.000000 
140.600479 63.699837 232.613708 0.000000 0.000000 0.000000 -113.450289 -31.215713 176.677350 -38.731141 17.906435 23.857280 54.374607 -11.375030 -3.373340 22.958619 -16.420104 3.277471 0.000000 0.000000 0.000000 -110.379880 -31.053035 176.878431 -74.085054 37.026367 -22.462797 34.622615 23.280536 10.153168 -0.341043 6.049557 22.489897 0.000000 0.000000 0.000000 -110.285610 -33.410642 179.604797 -0.708478 0.072785 -0.032051 28.170098 -3.244691 -7.341786 -5.526399 -0.170722 13.013646 0.000000 0.000000 0.000000 -1.749335 2.515024 12.273820 -1.478219 -2.216001 -0.334780 0.000000 0.000000 0.000000 0.050994 2.080200 13.497329 7.057616 -31.570114 7.806168 79.058538 45.954360 -119.269351 122.201592 -29.137737 163.963267 0.000000 0.000000 0.000000 -4.316884 3.982421 9.851570 19.611495 50.039769 -12.167273 34.170231 -21.907931 125.581634 54.274230 19.739814 -144.530068 0.000000 0.000000 0.000000 
146.866196 53.653473 242.822937 0.000000 0.000000 0.000000 -114.583636 -18.606690 175.401321 -34.528573 22.330841 23.028025 50.816898 -8.573096 -5.675402 11.864404 -13.442449 5.662994 0.000000 0.000000 0.000000 -111.383317 -19.501421 176.394826 -86.796330 36.473033 -14.376163 32.569344 26.302282 17.630470 -1.540847 6.434764 28.770796 0.000000 0.000000 0.000000 -111.319523 -21.359062 179.373813 -0.741537 0.224307 -0.021206 27.864592 -4.201483 -7.277519 -3.698965 0.047022 13.689717 0.000000 0.000000 0.000000 -0.983083 2.947507 13.479582 -0.414117 -1.925181 -0.335382 0.000000 0.000000 0.000000 1.267621 2.442407 14.268847 6.227239 -36.639273 3.579388 74.355420 43.801474 -116.570265 123.250203 -27.488472 163.806118 0.000000 0.000000 0.000000 -3.212638 4.464069 11.057595 20.486615 48.170978 -13.228915 37.837725 -22.857387 127.748197 60.472200 17.639295 -148.770905 0.000000 0.000000 0.000000 
152.976196 45.546349 251.599609 0.000000 0.000000 0.000000 -114.545708 -7.388594 175.283910 -32.867348 25.457776 25.400639 55.948402 -4.902346 -7.897283 6.868771 -10.534276 7.989020 0.000000 0.000000 0.000000 -111.513760 -9.052641 176.410741 -99.959320 33.992762 -7.121995 36.745970 30.276787 23.494625 2.192292 8.272454 35.436206 0.000000 0.000000 0.000000 -111.408595 -10.505067 179.125399 -0.729160 0.244085 -0.000342 25.766467 -5.600743 -6.483249 -1.266570 0.038685 13.392278 0.000000 0.000000 0.000000 1.341831 3.351165 13.703809 0.751171 -1.601133 -0.195199 0.000000 0.000000 0.000000 2.710237 2.559934 13.786226 4.821894 -41.305330 -0.679738 66.667660 40.521214 -110.436188 121.356124 -28.201086 161.076160 0.000000 0.000000 0.000000 -2.184295 4.757778 11.193441 21.391065 44.927697 -14.229569 42.007767 -23.199552 130.027226 66.256489 15.635597 -152.063425 0.000000 0.000000 0.000000 
158.813385 40.168964 258.531433 0.000000 0.000000 0.000000 -113.296145 1.605078 175.604013 -36.030832 25.596933 32.166318 70.890738 -1.894448 -10.135966 9.534394 -7.803127 10.005472 0.000000 0.000000 0.000000 -110.866203 -0.238070 176.394908 -109.808166 31.100515 -0.458014 48.122624 34.461419 23.345928 7.246217 8.939564 38.861820 0.000000 0.000000 0.000000 -110.507331 -1.960553 178.507090 -0.671628 0.137555 0.037839 22.140330 -6.918965 -5.178836 1.228814 -0.057643 11.868605 0.000000 0.000000 0.000000 4.713894 3.718293 12.356179 1.644012 -1.212665 0.109507 0.000000 0.000000 0.000000 4.160312 2.533805 11.878599 3.710230 -44.519443 -2.928167 59.390640 36.208943 -102.989315 118.558861 -29.266841 157.350770 0.000000 0.000000 0.000000 -1.417526 4.888404 9.864099 22.107475 40.074342 -14.637102 43.896427 -23.931458 133.198005 70.577922 13.969184 -153.915854 0.000000 0.000000 0.000000 
164.071518 37.759022 262.771820 0.000000 0.000000 0.000000 -111.382080 7.570554 175.789726 -41.381029 21.617129 40.987467 87.466521 -0.937323 -11.368773 17.362196 -6.960458 10.486923 0.000000 0.000000 0.000000 -109.656399 6.320262 175.870145 -113.763282 28.726505 6.014718 61.935787 36.295495 17.712579 8.015924 6.786356 39.523562 0.000000 0.000000 0.000000 -109.144818 3.982087 177.501249 -0.602313 -0.068232 0.071721 17.830673 -7.566870 -3.588505 3.305924 -0.209798 9.336616 0.000000 0.000000 0.000000 8.072462 3.950084 9.508198 1.820466 -0.727075 0.543917 0.000000 0.000000 0.000000 5.189124 2.444665 8.898166 3.954750 -45.596512 -1.335758 55.959846 31.143071 -95.791197 117.598782 -28.952219 154.852683 0.000000 0.000000 0.000000 -0.896626 5.031429 7.289552 22.515391 33.699539 -13.713161 42.855896 -26.642869 137.436575 73.885708 12.847495 -154.523017 0.000000 0.000000 0.000000 
168.032669 37.540867 265.326508 0.000000 0.000000 0.000000 -109.614803 11.100334 175.211250 -45.482984 14.839959 48.344813 98.189311 -1.258891 -11.262435 26.213571 -9.275446 8.608417 0.000000 0.000000 0.000000 -108.245350 10.410859 174.496525 -112.177313 27.449108 10.857222 73.029776 35.150599 10.843573 0.999683 2.485685 39.036594 0.000000 0.000000 0.000000 -107.854049 7.610156 175.839914 -0.561216 -0.302763 0.084910 13.762522 -7.164159 -1.918648 4.536735 -0.309691 6.401738 0.000000 0.000000 0.000000 10.141098 4.046653 5.874273 0.930324 -0.144090 1.021858 0.000000 0.000000 0.000000 5.646050 2.454047 5.561140 5.786301 -44.615858 4.122124 57.268527 25.981073 -89.206949 120.308810 -26.426074 155.080579 0.000000 0.000000 0.000000 -0.607904 5.246697 3.998191 22.758604 26.423268 -10.825088 40.899101 -33.601498 142.484071 77.680097 12.438691 -154.487158 0.000000 0.000000 0.000000 
171.083832 38.075390 266.738251 0.000000 0.000000 0.000000 -108.898986 12.554220 173.829120 -46.917075 7.569277 52.713788 100.344713 -1.935388 -10.772205 30.722266 -15.636559 4.878621 0.000000 0.000000 0.000000 -107.647756 12.090464 172.694694 -107.643467 27.815990 12.809068 79.409644 33.264654 5.385634 -8.315295 0.984119 39.490474 0.000000 0.000000 0.000000 -107.445098 9.511013 173.861154 -0.573493 -0.432260 0.099716 10.529793 -5.377470 -0.463550 4.859639 -0.166635 3.518554 0.000000 0.000000 0.000000 9.955406 4.208953 2.320512 -0.916449 0.497783 1.470030 0.000000 0.000000 0.000000 5.889468 2.688381 2.589601 8.611820 -42.392320 11.961837 61.823976 20.809577 -83.254446 125.470329 -22.852085 157.009096 0.000000 0.000000 0.000000 -0.013557 5.618119 0.626795 23.367484 19.197015 -6.706636 40.749305 -45.873319 147.926106 83.153380 12.798560 -154.513400 0.000000 0.000000 0.000000 
